<?xml version="1.0" encoding="utf-8"?>
<!-- Generator: Adobe Illustrator 16.0.0, SVG Export Plug-In . SVG Version: 6.00 Build 0)  -->
<!DOCTYPE svg PUBLIC "-//W3C//DTD SVG 1.1//EN" "http://www.w3.org/Graphics/SVG/1.1/DTD/svg11.dtd">
<svg version="1.1" id="Layer_1" xmlns="http://www.w3.org/2000/svg" xmlns:xlink="http://www.w3.org/1999/xlink" x="0px" y="0px"
	 width="260px" height="75px" viewBox="0 0 260 75" enable-background="new 0 0 260 75" xml:space="preserve">
<g>
	<path fill="#F58727" d="M46.407,58.35c-3.86,4.002-8.063,7.301-12.605,9.901c-5.514,3.117-12.656,4.699-21.426,4.748
		c-3.572,0.024-6.683-0.554-9.335-1.729l-0.512-0.332l-0.157-0.293L2.41,70.46l0.158-0.295l1.339-1.508l0.512-0.332l0.513-0.074
		c0.236,0.074,0.551,0.197,0.945,0.367c3.046,1.721,6.761,2.565,11.146,2.541c2.967,0.024,5.83-0.382,8.587-1.216
		c3.124-0.932,5.92-2.243,8.39-3.938c3.492-2.406,6.866-5.363,10.122-8.871c2.994-3.191,6.145-6.959,9.453-11.303
		c2.311-3.043,4.949-6.676,7.917-10.896l6.302-8.982l5.79-7.841c1.129-1.521,2.297-2.724,3.506-3.607
		c0.394-0.294,0.761-0.441,1.103-0.441c1.418,0,2.153,1.387,2.206,4.16c0,1.669-0.197,3.51-0.59,5.521
		c-0.657,3.313-1.708,7.251-3.151,11.817L72.916,46.9l-1.142,3.351l-1.143,3.424h1.024l2.246-0.147l0.473,0.147l0.236,0.293
		L74.569,54.3l-0.197,0.259c-0.184,0.123-0.565,0.196-1.143,0.221l-1.851,0.146h-1.103L64.17,71.271h-2.915l-0.394-1.031
		c-0.92-2.158-2.206-4.602-3.86-7.326c-1.654-2.697-3.165-4.846-4.53-6.441l-2.127-2.356L46.407,58.35z M51.487,52.532l1.182,0.223
		c2.73,0.465,5.895,0.724,9.493,0.771h4.293l5.79-17.558l2.56-8.135c1.05-3.362,1.825-6.344,2.323-8.945l0.04-0.773l-0.236-0.625
		l-1.103,0.92c-1.786,2.333-3.44,4.626-4.962,6.884L62.28,37.773c-1.234,1.814-3.584,5.055-7.05,9.717L51.487,52.532z M54.56,56.509
		c0.919,1.203,1.93,2.576,3.033,4.123c1.208,1.742,2.114,3.228,2.718,4.453l1.3,2.945l4.411-12.994h-3.348
		c-2.206-0.05-5.489-0.259-9.847-0.627L54.56,56.509z"/>
</g>
<g>
	<path fill="#F58727" d="M79.703,53.368c-1.492-0.664-2.637-1.588-3.436-2.773c-0.799-1.188-1.198-2.497-1.198-3.936
		c0-2.195,0.91-4.086,2.73-5.668c1.82-1.582,4.15-2.373,6.992-2.373c2.325,0,4.341,0.518,6.045,1.549h5.167
		c0.764,0,1.208,0.021,1.332,0.062c0.125,0.041,0.213,0.108,0.267,0.207c0.106,0.145,0.16,0.401,0.16,0.774
		c0,0.42-0.044,0.709-0.133,0.871c-0.054,0.08-0.146,0.146-0.279,0.192c-0.133,0.05-0.582,0.072-1.346,0.072h-3.169
		c0.995,1.164,1.492,2.648,1.492,4.457c0,2.066-0.87,3.834-2.61,5.305c-1.74,1.47-4.075,2.203-7.004,2.203
		c-1.208,0-2.442-0.162-3.703-0.483c-0.781,0.612-1.309,1.149-1.585,1.608c-0.275,0.461-0.413,0.854-0.413,1.176
		c0,0.273,0.146,0.541,0.44,0.8c0.292,0.258,0.865,0.442,1.718,0.557c0.497,0.064,1.739,0.121,3.729,0.171
		c3.658,0.079,6.028,0.192,7.112,0.338c1.651,0.211,2.969,0.768,3.955,1.672c0.986,0.903,1.478,2.02,1.478,3.342
		c0,1.824-0.941,3.535-2.823,5.135c-2.769,2.355-6.383,3.535-10.839,3.535c-3.427,0-6.322-0.701-8.683-2.105
		c-1.332-0.809-1.998-1.647-1.998-2.52c0-0.387,0.097-0.775,0.292-1.162c0.302-0.598,0.924-1.43,1.865-2.494
		c0.124-0.146,1.03-1.02,2.717-2.615c-0.923-0.502-1.576-0.949-1.957-1.346c-0.382-0.395-0.573-0.844-0.573-1.344
		c0-0.564,0.253-1.227,0.759-1.984C76.707,55.829,77.874,54.755,79.703,53.368z M79.437,61.456c-0.835,0.821-1.465,1.59-1.891,2.301
		c-0.426,0.709-0.639,1.363-0.639,1.961c0,0.775,0.515,1.453,1.545,2.035c1.775,1,4.341,1.5,7.697,1.5
		c3.196,0,5.553-0.512,7.071-1.537c1.518-1.024,2.277-2.118,2.277-3.28c0-0.84-0.453-1.438-1.358-1.793
		c-0.923-0.355-2.753-0.564-5.487-0.629C84.657,61.915,81.584,61.729,79.437,61.456z M84.337,39.78c-1.314,0-2.415,0.477-3.303,1.43
		c-0.888,0.951-1.332,2.414-1.332,4.383c0,2.552,0.604,4.527,1.811,5.935c0.923,1.063,2.095,1.598,3.516,1.598
		c1.349,0,2.459-0.461,3.329-1.381c0.87-0.918,1.306-2.365,1.306-4.334c0-2.568-0.613-4.578-1.839-6.031
		C86.921,40.313,85.758,39.78,84.337,39.78z"/>
	<path fill="#F58727" d="M114.273,58.259c-2.504,1.761-4.075,2.775-4.714,3.054c-0.958,0.401-1.98,0.604-3.063,0.604
		c-1.687,0-3.076-0.523-4.168-1.574c-1.092-1.049-1.638-2.43-1.638-4.141c0-1.082,0.266-2.018,0.799-2.809
		c0.728-1.101,1.993-2.132,3.795-3.103c1.802-0.97,4.798-2.146,8.989-3.535v-0.871c0-2.211-0.386-3.729-1.159-4.553
		c-0.772-0.824-1.896-1.236-3.369-1.236c-1.118,0-2.007,0.275-2.664,0.822c-0.675,0.551-1.012,1.183-1.012,1.892l0.053,1.403
		c0,0.742-0.209,1.315-0.626,1.722c-0.417,0.401-0.962,0.604-1.637,0.604c-0.657,0-1.195-0.209-1.611-0.629
		c-0.417-0.42-0.626-0.992-0.626-1.719c0-1.39,0.781-2.664,2.343-3.826s3.755-1.744,6.579-1.744c2.167,0,3.942,0.33,5.327,0.992
		c1.047,0.5,1.82,1.285,2.317,2.35c0.319,0.693,0.479,2.115,0.479,4.262v7.533c0,2.115,0.044,3.41,0.132,3.887
		c0.089,0.476,0.235,0.793,0.44,0.957c0.204,0.16,0.439,0.242,0.706,0.242c0.284,0,0.533-0.057,0.746-0.172
		c0.373-0.207,1.091-0.799,2.157-1.766v1.354c-1.989,2.423-3.889,3.634-5.7,3.634c-0.87,0-1.563-0.275-2.077-0.824
		C114.557,60.52,114.292,59.583,114.273,58.259z M114.273,56.686v-8.451c-2.682,0.969-4.413,1.654-5.193,2.057
		c-1.403,0.713-2.406,1.453-3.01,2.229s-0.906,1.623-0.906,2.543c0,1.162,0.382,2.127,1.145,2.896
		c0.764,0.769,1.643,1.149,2.637,1.149C110.296,59.105,112.072,58.298,114.273,56.686z"/>
	<path fill="#F58727" d="M140.428,38.618v7.557h-0.877c-0.677-2.375-1.543-3.987-2.598-4.844c-1.057-0.854-2.403-1.285-4.035-1.285
		c-1.244,0-2.248,0.299-3.01,0.896c-0.764,0.599-1.146,1.261-1.146,1.986c0,0.904,0.284,1.68,0.854,2.324
		c0.55,0.664,1.669,1.365,3.354,2.107l3.892,1.721c3.604,1.598,5.404,3.705,5.404,6.32c0,2.018-0.839,3.645-2.517,4.879
		c-1.679,1.236-3.556,1.854-5.634,1.854c-1.49,0-3.196-0.242-5.113-0.727c-0.585-0.162-1.065-0.242-1.438-0.242
		c-0.409,0-0.729,0.211-0.959,0.629h-0.879v-7.918h0.879c0.497,2.26,1.447,3.963,2.85,5.109c1.402,1.146,2.975,1.719,4.714,1.719
		c1.226,0,2.224-0.326,2.997-0.98c0.771-0.654,1.158-1.44,1.158-2.361c0-1.114-0.43-2.051-1.293-2.809
		c-0.86-0.758-2.579-1.721-5.152-2.883c-2.575-1.162-4.262-2.211-5.061-3.146c-0.799-0.922-1.198-2.084-1.198-3.487
		c0-1.824,0.688-3.353,2.063-4.576c1.376-1.229,3.155-1.842,5.34-1.842c0.959,0,2.121,0.187,3.49,0.557
		c0.904,0.242,1.508,0.363,1.811,0.363c0.281,0,0.506-0.058,0.665-0.17c0.161-0.113,0.347-0.363,0.562-0.75H140.428L140.428,38.618z
		"/>
	<path fill="#F58727" d="M152.973,31.982v7.29h5.7v1.696h-5.7v14.386c0,1.438,0.227,2.403,0.682,2.905
		c0.451,0.5,1.033,0.752,1.742,0.752c0.586,0,1.154-0.166,1.705-0.497c0.551-0.332,0.977-0.818,1.278-1.466h1.039
		c-0.623,1.582-1.501,2.772-2.639,3.572c-1.136,0.799-2.31,1.198-3.515,1.198c-0.816,0-1.617-0.207-2.396-0.616
		c-0.783-0.412-1.358-1.002-1.73-1.771c-0.373-0.766-0.56-1.949-0.56-3.547V40.968h-3.864v-0.801
		c0.979-0.354,1.979-0.955,2.998-1.803c1.02-0.848,1.932-1.854,2.73-3.016c0.408-0.613,0.976-1.735,1.703-3.366H152.973z"/>
	<path fill="#F58727" d="M168.206,27.018v16.227c1.971-1.972,3.533-3.234,4.688-3.791c1.153-0.56,2.309-0.836,3.463-0.836
		c1.385,0,2.574,0.348,3.567,1.041c0.993,0.694,1.731,1.784,2.211,3.271c0.337,1.032,0.505,2.922,0.505,5.668v7.846
		c0,1.404,0.125,2.365,0.373,2.883c0.18,0.387,0.479,0.693,0.907,0.92c0.424,0.225,1.206,0.338,2.345,0.338v0.873h-11.988v-0.873
		h0.562c1.138,0,1.927-0.156,2.37-0.471c0.441-0.316,0.755-0.779,0.934-1.394c0.053-0.258,0.078-1.02,0.078-2.276v-7.846
		c0-2.423-0.138-4.015-0.412-4.771c-0.274-0.76-0.715-1.328-1.318-1.707c-0.604-0.381-1.33-0.57-2.184-0.57
		c-0.869,0-1.777,0.211-2.717,0.631c-0.941,0.418-2.068,1.269-3.384,2.543v11.721c0,1.519,0.096,2.464,0.28,2.834
		c0.188,0.371,0.531,0.683,1.039,0.933c0.506,0.25,1.379,0.375,2.625,0.375v0.873h-12.094v-0.873c1.082,0,1.936-0.151,2.558-0.461
		c0.354-0.16,0.639-0.467,0.851-0.918c0.215-0.453,0.32-1.373,0.32-2.763V36.365c0-2.534-0.066-4.092-0.199-4.674
		c-0.132-0.581-0.337-0.976-0.611-1.187c-0.275-0.21-0.645-0.315-1.105-0.315c-0.372,0-0.977,0.129-1.811,0.387l-0.375-0.847
		l7.299-2.712L168.206,27.018L168.206,27.018z"/>
	<path fill="#F58727" d="M202.139,58.259c-2.504,1.761-4.074,2.775-4.713,3.054c-0.959,0.401-1.979,0.604-3.064,0.604
		c-1.688,0-3.075-0.523-4.168-1.574c-1.092-1.049-1.639-2.43-1.639-4.141c0-1.082,0.268-2.018,0.801-2.809
		c0.729-1.101,1.994-2.132,3.795-3.103c1.803-0.97,4.798-2.146,8.988-3.535v-0.871c0-2.211-0.387-3.729-1.158-4.553
		c-0.771-0.824-1.896-1.236-3.369-1.236c-1.118,0-2.008,0.275-2.662,0.822c-0.676,0.551-1.014,1.183-1.014,1.892l0.055,1.403
		c0,0.742-0.209,1.315-0.625,1.722c-0.418,0.401-0.965,0.604-1.641,0.604c-0.656,0-1.193-0.209-1.609-0.629
		c-0.418-0.42-0.627-0.992-0.627-1.719c0-1.39,0.781-2.664,2.345-3.826c1.562-1.162,3.755-1.744,6.577-1.744
		c2.167,0,3.941,0.33,5.326,0.992c1.05,0.5,1.822,1.285,2.318,2.35c0.318,0.693,0.479,2.115,0.479,4.262v7.533
		c0,2.115,0.044,3.41,0.133,3.887c0.088,0.476,0.235,0.793,0.438,0.957c0.203,0.16,0.438,0.242,0.705,0.242
		c0.285,0,0.533-0.057,0.746-0.172c0.372-0.207,1.094-0.799,2.157-1.766v1.354c-1.989,2.423-3.888,3.634-5.698,3.634
		c-0.871,0-1.563-0.275-2.078-0.824S202.156,59.583,202.139,58.259z M202.139,56.686v-8.451c-2.681,0.969-4.412,1.654-5.191,2.057
		c-1.403,0.713-2.408,1.453-3.012,2.229s-0.904,1.623-0.904,2.543c0,1.162,0.382,2.127,1.146,2.896
		c0.763,0.769,1.642,1.149,2.638,1.149C198.16,59.105,199.938,58.298,202.139,56.686z"/>
</g>
<path fill="#F6B484" d="M224.991,64.23c0,0,10.125,3.916,25.377-2.43c0,0,13.903-5.803,4.725-17.682c0,0-1.756-1.215-2.161,2.158
	c0,0-0.134,5.402-7.557,10.801C245.375,57.079,240.784,61.128,224.991,64.23z"/>
<path fill="#F6B484" d="M221.969,62.436c0,0,10.865-0.537,24.397-13.631c0,0,9.797-10.125,9.571-15.523
	c0.157-0.258-3.588-8.346-4.14-7.019c0,0-0.717,3.901-1.889,7.492c-1.013,3.101-2.382,5.979-2.7,6.412
	c-1.146,1.553-1.417,3.51-12.146,13.498c0,0-5.672,4.453-8.102,5.67L221.969,62.436z"/>
<path fill="#F6B484" d="M242.73,30.824c-0.559,6.478-3.029,13.335-6.029,17.365c0,0,11.922-9.086,11.476-24.699
	c0,0-0.016-0.294-0.237-0.619c-0.929-1.355-6.153-7.761-6.107-6.636C241.831,16.235,243.387,23.207,242.73,30.824z"/>
<path fill="#F58727" d="M222.193,55.999c0,0,12.484-9.519,15.994-28.009c0,0,4.724-17.346-4.388-19.234c0,0-1.108,0.216,0.474,2.699
	c0,0,2.797,5.825,0.201,18.358c0,0-0.627,6.521-5.468,16.804C229.008,46.616,224.016,54.85,222.193,55.999z"/>
<path fill="#F58727" d="M220.504,55.188c0,0,6.682-7.558,9.785-19.437c0,0,3.477-16.487,1.246-23.803c0,0-0.646-2.428-2.151-4.175
	c-1.344-1.562-3.72-3.513-5.843-2.729c0,0-0.895-0.164,0.883,2.274c0,0,2.854,5.043,2.965,6.972c0,0,1.416,5.129,0.812,17.615
	c0,0,0.065,7.56-3.646,16.13L220.504,55.188z"/>
<path fill="#F58727" d="M211.077,2.749c0,0,13.228,9.719,13.496,22.947c0,0,0.606,0.742,0.809-0.81c0,0,1.688-16.063-9.11-22.542
	C216.271,2.344,210.132-0.154,211.077,2.749z"/>
<circle cx="212.898" cy="32.311" r="5.622"/>
<circle fill="#FFFFFF" cx="212.813" cy="32.228" r="4.795"/>
<g>
	<g>
		<path d="M215.934,34.644h-1.601l-2.026-2.181c-0.149,0.005-0.271,0.007-0.365,0.007c-0.039,0-0.08,0-0.123-0.001
			c-0.045-0.001-0.092-0.002-0.137-0.005v1.355c0,0.293,0.041,0.476,0.123,0.547c0.11,0.102,0.279,0.152,0.502,0.152h0.233v0.127
			h-2.563v-0.127h0.225c0.254,0,0.436-0.064,0.545-0.193c0.063-0.071,0.09-0.24,0.09-0.505v-3.014c0-0.293-0.04-0.476-0.122-0.547
			c-0.114-0.101-0.286-0.151-0.513-0.151h-0.225v-0.127h2.181c0.637,0,1.104,0.036,1.407,0.108c0.302,0.072,0.559,0.205,0.77,0.399
			c0.209,0.193,0.314,0.425,0.314,0.693c0,0.287-0.121,0.535-0.358,0.747c-0.242,0.211-0.613,0.36-1.116,0.447l1.237,1.338
			c0.28,0.308,0.524,0.512,0.729,0.612c0.202,0.101,0.467,0.166,0.793,0.193V34.644L215.934,34.644z M211.682,32.246
			c0.055,0,0.104,0,0.146,0.002c0.04,0.001,0.073,0.002,0.1,0.002c0.571,0,1.003-0.097,1.292-0.29
			c0.292-0.193,0.437-0.438,0.437-0.736c0-0.292-0.117-0.528-0.351-0.71c-0.234-0.182-0.546-0.274-0.932-0.274
			c-0.171,0-0.402,0.022-0.691,0.066V32.246z"/>
	</g>
	<g>
		<path fill="#000100" d="M215.934,34.644h-1.601l-2.026-2.181c-0.149,0.005-0.271,0.007-0.365,0.007c-0.039,0-0.08,0-0.123-0.001
			c-0.045-0.001-0.092-0.002-0.137-0.005v1.355c0,0.293,0.041,0.476,0.123,0.547c0.11,0.102,0.279,0.152,0.502,0.152h0.233v0.127
			h-2.563v-0.127h0.225c0.254,0,0.436-0.064,0.545-0.193c0.063-0.071,0.09-0.24,0.09-0.505v-3.014c0-0.293-0.04-0.476-0.122-0.547
			c-0.114-0.101-0.286-0.151-0.513-0.151h-0.225v-0.127h2.181c0.637,0,1.104,0.036,1.407,0.108c0.302,0.072,0.559,0.205,0.77,0.399
			c0.209,0.193,0.314,0.425,0.314,0.693c0,0.287-0.121,0.535-0.358,0.747c-0.242,0.211-0.613,0.36-1.116,0.447l1.237,1.338
			c0.28,0.308,0.524,0.512,0.729,0.612c0.202,0.101,0.467,0.166,0.793,0.193V34.644L215.934,34.644z M211.682,32.246
			c0.055,0,0.104,0,0.146,0.002c0.04,0.001,0.073,0.002,0.1,0.002c0.571,0,1.003-0.097,1.292-0.29
			c0.292-0.193,0.437-0.438,0.437-0.736c0-0.292-0.117-0.528-0.351-0.71c-0.234-0.182-0.546-0.274-0.932-0.274
			c-0.171,0-0.402,0.022-0.691,0.066V32.246z"/>
	</g>
</g>
<g>
	<path fill="#020202" d="M100.994,68.813v1.528c0,0.332,0.047,0.537,0.14,0.617c0.125,0.112,0.316,0.17,0.572,0.17h0.259v0.144
		h-2.89v-0.144h0.254c0.285,0,0.489-0.071,0.611-0.217c0.066-0.08,0.1-0.271,0.1-0.57v-3.396c0-0.329-0.045-0.534-0.135-0.614
		c-0.129-0.113-0.322-0.17-0.577-0.17h-0.254v-0.144h2.472c0.604,0,1.08,0.047,1.427,0.146c0.349,0.096,0.642,0.26,0.881,0.487
		c0.239,0.23,0.358,0.504,0.358,0.818c0,0.428-0.181,0.777-0.545,1.047c-0.363,0.269-0.876,0.402-1.54,0.402
		c-0.162,0-0.338-0.01-0.527-0.027C101.412,68.874,101.21,68.848,100.994,68.813z M100.994,68.591
		c0.177,0.023,0.332,0.045,0.468,0.058c0.137,0.014,0.252,0.02,0.348,0.02c0.345,0,0.643-0.104,0.893-0.313
		c0.25-0.207,0.375-0.478,0.375-0.808c0-0.228-0.059-0.438-0.179-0.633c-0.119-0.195-0.289-0.342-0.508-0.438
		c-0.218-0.098-0.467-0.146-0.746-0.146c-0.169,0-0.387,0.024-0.652,0.073L100.994,68.591L100.994,68.591z"/>
	<path fill="#020202" d="M107.118,67.618c0.689,0,1.244,0.202,1.661,0.61c0.354,0.349,0.532,0.75,0.532,1.201
		c0,0.318-0.098,0.639-0.294,0.965c-0.196,0.326-0.465,0.572-0.808,0.736c-0.343,0.166-0.726,0.248-1.146,0.248
		c-0.687,0-1.232-0.213-1.637-0.639c-0.341-0.359-0.512-0.764-0.512-1.209c0-0.326,0.103-0.65,0.311-0.971
		c0.207-0.322,0.48-0.562,0.818-0.713C106.381,67.693,106.74,67.618,107.118,67.618z M106.964,67.868
		c-0.176,0-0.353,0.041-0.53,0.123c-0.177,0.082-0.321,0.225-0.431,0.428c-0.109,0.203-0.164,0.467-0.164,0.787
		c0,0.517,0.132,0.963,0.395,1.338c0.264,0.375,0.611,0.562,1.043,0.562c0.321,0,0.587-0.104,0.796-0.312
		c0.208-0.205,0.313-0.562,0.313-1.063c0-0.631-0.174-1.127-0.521-1.488C107.628,67.993,107.328,67.868,106.964,67.868z"/>
	<path fill="#020202" d="M109.729,67.723h1.909v0.143c-0.175,0.012-0.291,0.035-0.345,0.074c-0.054,0.039-0.082,0.094-0.082,0.168
		c0,0.078,0.028,0.176,0.084,0.289l0.975,2.043l0.979-1.662l-0.258-0.523c-0.079-0.154-0.184-0.264-0.313-0.322
		c-0.073-0.037-0.208-0.059-0.408-0.065v-0.144h2.168v0.144c-0.238,0.008-0.407,0.043-0.507,0.102c-0.067,0.043-0.1,0.107-0.1,0.197
		c0,0.053,0.014,0.104,0.04,0.16l1.034,2.036l0.96-1.965c0.066-0.139,0.099-0.25,0.099-0.332c0-0.049-0.033-0.094-0.097-0.133
		c-0.065-0.039-0.192-0.061-0.381-0.065v-0.144h1.438v0.144c-0.289,0.032-0.501,0.188-0.637,0.459l-1.522,3.057h-0.204l-1.139-2.268
		l-1.328,2.268h-0.185l-1.463-2.983c-0.096-0.188-0.19-0.314-0.283-0.381c-0.093-0.067-0.239-0.117-0.438-0.15v-0.145H109.729z"/>
	<path fill="#020202" d="M118.106,69.059c-0.003,0.526,0.16,0.94,0.492,1.239c0.332,0.302,0.721,0.449,1.169,0.449
		c0.298,0,0.558-0.063,0.779-0.19c0.22-0.127,0.405-0.347,0.554-0.656l0.154,0.076c-0.069,0.354-0.271,0.678-0.606,0.969
		s-0.754,0.436-1.258,0.436c-0.547,0-1.016-0.166-1.406-0.498c-0.389-0.332-0.584-0.777-0.584-1.34c0-0.605,0.2-1.078,0.6-1.418
		c0.399-0.34,0.901-0.51,1.504-0.51c0.511,0,0.93,0.131,1.258,0.393c0.329,0.262,0.492,0.611,0.492,1.051H118.106L118.106,69.059z
		 M118.106,68.835h2.109c-0.017-0.229-0.051-0.39-0.104-0.481c-0.083-0.146-0.207-0.259-0.372-0.34
		c-0.164-0.084-0.335-0.125-0.515-0.125c-0.275,0-0.521,0.081-0.738,0.25C118.269,68.305,118.142,68.538,118.106,68.835z"/>
	<path fill="#020202" d="M123.194,67.618v0.797c0.381-0.531,0.773-0.797,1.173-0.797c0.183,0,0.333,0.041,0.453,0.129
		c0.12,0.086,0.179,0.187,0.179,0.301c0,0.101-0.043,0.185-0.129,0.257c-0.086,0.067-0.189,0.104-0.308,0.104
		c-0.117,0-0.247-0.043-0.391-0.133s-0.251-0.135-0.321-0.135c-0.06,0-0.125,0.026-0.194,0.077c-0.15,0.105-0.304,0.279-0.463,0.523
		v1.7c0,0.195,0.031,0.345,0.095,0.445c0.042,0.07,0.119,0.129,0.228,0.176c0.11,0.045,0.268,0.068,0.473,0.068v0.139h-2.333v-0.139
		c0.232,0,0.405-0.027,0.517-0.086c0.083-0.041,0.141-0.107,0.174-0.197c0.016-0.043,0.025-0.168,0.025-0.375v-1.377
		c0-0.412-0.012-0.658-0.033-0.738c-0.021-0.078-0.062-0.135-0.12-0.172c-0.058-0.035-0.13-0.055-0.216-0.055
		c-0.103,0-0.219,0.02-0.348,0.059l-0.049-0.139l1.377-0.434L123.194,67.618L123.194,67.618z"/>
	<path fill="#020202" d="M126.826,67.618v2.85c0,0.224,0.021,0.371,0.062,0.445c0.042,0.073,0.103,0.127,0.184,0.164
		c0.081,0.037,0.229,0.055,0.445,0.055v0.14h-2.213v-0.14c0.222,0,0.372-0.016,0.448-0.051c0.076-0.033,0.136-0.09,0.181-0.166
		c0.045-0.078,0.067-0.228,0.067-0.447v-1.366c0-0.386-0.015-0.636-0.044-0.748c-0.023-0.082-0.06-0.142-0.109-0.172
		c-0.05-0.033-0.118-0.05-0.204-0.05c-0.094,0-0.206,0.021-0.338,0.06l-0.07-0.14l1.374-0.434H126.826z M126.413,65.761
		c0.139,0,0.257,0.039,0.355,0.113c0.097,0.078,0.146,0.17,0.146,0.276c0,0.109-0.049,0.203-0.146,0.279
		c-0.098,0.078-0.217,0.117-0.355,0.117c-0.14,0-0.259-0.039-0.359-0.117c-0.099-0.076-0.149-0.17-0.149-0.279
		c0-0.106,0.049-0.198,0.146-0.276C126.15,65.8,126.271,65.761,126.413,65.761z"/>
	<path fill="#020202" d="M129.413,68.368c0.534-0.5,1.043-0.75,1.526-0.75c0.25,0,0.463,0.047,0.643,0.146
		c0.178,0.098,0.322,0.256,0.428,0.479c0.072,0.154,0.11,0.393,0.11,0.713v1.514c0,0.227,0.021,0.379,0.067,0.459
		c0.037,0.064,0.096,0.113,0.177,0.15s0.23,0.055,0.45,0.055v0.139h-2.254v-0.139h0.094c0.215,0,0.363-0.025,0.445-0.076
		c0.086-0.051,0.145-0.125,0.178-0.223c0.015-0.039,0.02-0.16,0.02-0.365v-1.451c0-0.322-0.053-0.557-0.161-0.703
		c-0.108-0.146-0.288-0.221-0.544-0.221c-0.395,0-0.788,0.17-1.179,0.506v1.869c0,0.24,0.018,0.391,0.055,0.447
		c0.046,0.074,0.11,0.129,0.191,0.164c0.082,0.035,0.246,0.053,0.496,0.053v0.139h-2.253v-0.139H128c0.232,0,0.389-0.047,0.47-0.137
		c0.082-0.092,0.123-0.268,0.123-0.527v-1.316c0-0.426-0.013-0.686-0.038-0.778c-0.024-0.092-0.063-0.156-0.114-0.188
		c-0.051-0.033-0.12-0.052-0.207-0.052c-0.092,0-0.204,0.021-0.333,0.06l-0.075-0.14l1.373-0.434h0.214V68.368L129.413,68.368z"/>
	<path fill="#020202" d="M134.396,69.977c-0.277-0.105-0.492-0.252-0.642-0.441c-0.151-0.191-0.224-0.4-0.224-0.631
		c0-0.353,0.168-0.652,0.508-0.906c0.342-0.254,0.775-0.379,1.309-0.379c0.434,0,0.81,0.082,1.127,0.246h0.965
		c0.145,0,0.227,0.004,0.25,0.01c0.023,0.008,0.039,0.018,0.05,0.035c0.019,0.021,0.03,0.063,0.03,0.121
		c0,0.068-0.009,0.115-0.024,0.141c-0.011,0.012-0.027,0.023-0.054,0.031c-0.025,0.008-0.107,0.012-0.252,0.012h-0.59
		c0.186,0.186,0.276,0.424,0.276,0.713c0,0.332-0.162,0.613-0.485,0.848c-0.324,0.236-0.763,0.354-1.31,0.354
		c-0.226,0-0.456-0.024-0.69-0.075c-0.146,0.098-0.244,0.182-0.297,0.258c-0.052,0.071-0.076,0.135-0.076,0.188
		c0,0.043,0.026,0.086,0.08,0.127c0.057,0.041,0.163,0.07,0.322,0.088c0.092,0.012,0.324,0.021,0.696,0.029
		c0.683,0.012,1.125,0.029,1.327,0.053c0.309,0.033,0.556,0.125,0.74,0.27c0.184,0.144,0.274,0.32,0.274,0.533
		c0,0.293-0.176,0.564-0.526,0.822c-0.519,0.375-1.192,0.564-2.024,0.564c-0.642,0-1.183-0.113-1.622-0.336
		c-0.25-0.129-0.372-0.265-0.372-0.404c0-0.061,0.017-0.123,0.054-0.186c0.057-0.097,0.172-0.229,0.348-0.4
		c0.024-0.021,0.192-0.16,0.51-0.418c-0.172-0.078-0.295-0.15-0.366-0.215c-0.072-0.063-0.106-0.135-0.106-0.215
		c0-0.09,0.047-0.197,0.143-0.316C133.837,70.37,134.057,70.198,134.396,69.977z M134.348,71.271
		c-0.156,0.133-0.272,0.254-0.354,0.369c-0.081,0.112-0.119,0.219-0.119,0.313c0,0.123,0.096,0.229,0.288,0.323
		c0.331,0.16,0.812,0.24,1.438,0.24c0.597,0,1.037-0.08,1.318-0.246c0.286-0.164,0.426-0.338,0.426-0.522
		c0-0.138-0.084-0.229-0.253-0.289c-0.173-0.058-0.514-0.09-1.024-0.101C135.32,71.345,134.748,71.314,134.348,71.271z
		 M135.264,67.805c-0.246,0-0.453,0.075-0.619,0.227c-0.164,0.152-0.248,0.387-0.248,0.703c0,0.408,0.113,0.725,0.34,0.949
		c0.173,0.17,0.392,0.256,0.654,0.256c0.254,0,0.463-0.074,0.623-0.222c0.162-0.147,0.243-0.379,0.243-0.692
		c0-0.412-0.114-0.732-0.344-0.965C135.745,67.889,135.527,67.805,135.264,67.805z"/>
	<path fill="#020202" d="M142.595,68.454h3.134V66.95c0-0.271-0.021-0.445-0.065-0.529c-0.032-0.063-0.103-0.121-0.207-0.168
		c-0.144-0.063-0.293-0.092-0.454-0.092h-0.238v-0.144h2.887v0.144h-0.239c-0.159,0-0.312,0.026-0.452,0.088
		c-0.105,0.041-0.18,0.104-0.217,0.188c-0.038,0.084-0.057,0.254-0.057,0.513v3.391c0,0.267,0.021,0.441,0.063,0.527
		c0.032,0.063,0.103,0.118,0.203,0.166c0.146,0.063,0.299,0.094,0.458,0.094h0.24v0.144h-2.887v-0.144h0.237
		c0.276,0,0.476-0.063,0.604-0.188c0.08-0.084,0.121-0.283,0.121-0.599v-1.6h-3.133v1.6c0,0.267,0.021,0.441,0.064,0.527
		c0.033,0.063,0.104,0.118,0.209,0.166c0.143,0.063,0.294,0.094,0.453,0.094h0.242v0.144h-2.892v-0.144h0.24
		c0.278,0,0.479-0.063,0.606-0.188c0.08-0.084,0.119-0.283,0.119-0.599V66.95c0-0.271-0.022-0.445-0.064-0.529
		c-0.032-0.063-0.1-0.121-0.203-0.168c-0.146-0.063-0.299-0.092-0.458-0.092h-0.24v-0.144h2.892v0.144h-0.242
		c-0.159,0-0.312,0.026-0.453,0.088c-0.104,0.041-0.174,0.104-0.215,0.188s-0.06,0.254-0.06,0.513v1.504H142.595z"/>
	<path fill="#020202" d="M148.941,69.059c-0.004,0.526,0.16,0.94,0.492,1.239c0.332,0.302,0.721,0.449,1.168,0.449
		c0.299,0,0.561-0.063,0.778-0.19c0.224-0.127,0.406-0.347,0.556-0.656l0.153,0.076c-0.067,0.354-0.271,0.678-0.604,0.969
		c-0.336,0.291-0.754,0.436-1.26,0.436c-0.548,0-1.016-0.166-1.404-0.498c-0.392-0.332-0.584-0.777-0.584-1.34
		c0-0.605,0.199-1.078,0.6-1.418c0.398-0.34,0.898-0.51,1.504-0.51c0.512,0,0.93,0.131,1.258,0.393
		c0.33,0.262,0.492,0.611,0.492,1.051H148.941L148.941,69.059z M148.941,68.835h2.108c-0.018-0.229-0.052-0.39-0.104-0.481
		c-0.082-0.146-0.205-0.259-0.368-0.34c-0.165-0.084-0.337-0.125-0.517-0.125c-0.273,0-0.521,0.081-0.74,0.25
		C149.105,68.305,148.979,68.538,148.941,68.835z"/>
	<path fill="#020202" d="M155.279,70.759c-0.469,0.281-0.762,0.445-0.881,0.49c-0.179,0.063-0.369,0.096-0.571,0.096
		c-0.316,0-0.575-0.084-0.778-0.252c-0.205-0.168-0.307-0.389-0.307-0.661c0-0.175,0.05-0.322,0.148-0.451
		c0.137-0.174,0.373-0.34,0.711-0.494c0.334-0.154,0.896-0.344,1.678-0.566v-0.14c0-0.355-0.071-0.599-0.217-0.729
		c-0.145-0.133-0.354-0.197-0.629-0.197c-0.209,0-0.375,0.043-0.498,0.131c-0.125,0.089-0.188,0.189-0.188,0.302l0.01,0.228
		c0,0.118-0.038,0.209-0.116,0.274c-0.08,0.063-0.182,0.096-0.306,0.096c-0.123,0-0.224-0.032-0.302-0.1
		c-0.078-0.068-0.116-0.16-0.116-0.275c0-0.223,0.146-0.428,0.437-0.612c0.293-0.187,0.703-0.277,1.229-0.277
		c0.403,0,0.735,0.053,0.995,0.158c0.195,0.08,0.34,0.205,0.432,0.375c0.063,0.111,0.09,0.34,0.09,0.684v1.205
		c0,0.338,0.008,0.545,0.025,0.621c0.016,0.076,0.044,0.127,0.082,0.152c0.039,0.024,0.083,0.039,0.131,0.039
		c0.055,0,0.1-0.011,0.141-0.027c0.068-0.033,0.205-0.127,0.401-0.281v0.215c-0.37,0.387-0.726,0.582-1.063,0.582
		c-0.16,0-0.291-0.043-0.388-0.131C155.333,71.123,155.283,70.973,155.279,70.759z M155.279,70.507v-1.352
		c-0.502,0.155-0.824,0.266-0.971,0.329c-0.262,0.113-0.449,0.232-0.563,0.357c-0.111,0.123-0.169,0.258-0.169,0.406
		c0,0.186,0.071,0.34,0.215,0.461c0.142,0.125,0.308,0.186,0.491,0.186C154.537,70.896,154.867,70.768,155.279,70.507z"/>
	<path fill="#020202" d="M158.786,65.761v4.707c0,0.224,0.021,0.371,0.062,0.443c0.043,0.071,0.105,0.127,0.191,0.164
		c0.087,0.036,0.248,0.057,0.482,0.057v0.14h-2.232v-0.14c0.209,0,0.354-0.016,0.428-0.051c0.076-0.033,0.137-0.09,0.18-0.166
		c0.043-0.078,0.063-0.228,0.063-0.447v-3.223c0-0.4-0.012-0.646-0.034-0.738c-0.023-0.092-0.062-0.153-0.111-0.188
		c-0.051-0.034-0.116-0.051-0.196-0.051c-0.087,0-0.196,0.021-0.328,0.063l-0.085-0.138l1.357-0.434L158.786,65.761L158.786,65.761z
		"/>
	<path fill="#020202" d="M161.371,66.557v1.166h1.066v0.271h-1.066v2.301c0,0.229,0.042,0.388,0.129,0.465
		c0.084,0.08,0.191,0.121,0.326,0.121c0.109,0,0.215-0.024,0.318-0.078c0.102-0.055,0.182-0.133,0.236-0.235h0.193
		c-0.116,0.254-0.279,0.442-0.492,0.572c-0.213,0.127-0.432,0.19-0.656,0.19c-0.152,0-0.303-0.033-0.447-0.099
		c-0.146-0.065-0.254-0.162-0.322-0.282c-0.071-0.123-0.105-0.313-0.105-0.568v-2.387h-0.721v-0.129
		c0.182-0.056,0.368-0.152,0.561-0.289c0.188-0.134,0.359-0.295,0.51-0.48c0.076-0.098,0.183-0.278,0.317-0.538H161.371z"/>
	<path fill="#020202" d="M164.219,65.761v2.597c0.366-0.314,0.658-0.517,0.875-0.605c0.215-0.09,0.432-0.133,0.646-0.133
		c0.259,0,0.48,0.055,0.668,0.166c0.186,0.109,0.322,0.285,0.412,0.523c0.063,0.164,0.096,0.467,0.096,0.905v1.254
		c0,0.228,0.021,0.38,0.068,0.464c0.033,0.061,0.089,0.108,0.168,0.146c0.082,0.037,0.228,0.055,0.438,0.055v0.14h-2.237v-0.14
		h0.104c0.213,0,0.36-0.024,0.442-0.075c0.082-0.052,0.143-0.125,0.175-0.224c0.01-0.041,0.016-0.162,0.016-0.365v-1.254
		c0-0.387-0.026-0.644-0.077-0.764c-0.052-0.121-0.134-0.214-0.246-0.271c-0.111-0.063-0.248-0.095-0.408-0.095
		c-0.161,0-0.332,0.035-0.508,0.103s-0.385,0.203-0.631,0.407v1.873c0,0.242,0.016,0.396,0.051,0.455
		c0.037,0.06,0.1,0.109,0.195,0.147c0.094,0.041,0.258,0.062,0.488,0.062v0.14h-2.257v-0.14c0.2,0,0.36-0.022,0.476-0.071
		c0.067-0.027,0.121-0.076,0.161-0.148c0.038-0.072,0.06-0.221,0.06-0.443v-3.211c0-0.404-0.014-0.654-0.037-0.748
		c-0.025-0.092-0.063-0.156-0.113-0.189c-0.053-0.034-0.121-0.051-0.207-0.051c-0.071,0-0.184,0.021-0.338,0.063l-0.071-0.138
		l1.364-0.434L164.219,65.761L164.219,65.761z"/>
	<path fill="#020202" d="M171.843,69.923c-0.12,0.47-0.362,0.828-0.721,1.08c-0.358,0.25-0.754,0.377-1.188,0.377
		c-0.516,0-0.969-0.17-1.354-0.508c-0.383-0.338-0.575-0.797-0.575-1.373c0-0.558,0.213-1.01,0.64-1.358
		c0.426-0.349,0.938-0.521,1.533-0.521c0.447,0,0.817,0.092,1.104,0.275c0.29,0.186,0.434,0.377,0.434,0.575
		c0,0.099-0.04,0.179-0.123,0.238c-0.079,0.062-0.192,0.092-0.339,0.092c-0.197,0-0.344-0.049-0.443-0.147
		c-0.058-0.053-0.094-0.156-0.112-0.31c-0.017-0.153-0.084-0.27-0.201-0.35c-0.117-0.078-0.278-0.117-0.481-0.117
		c-0.332,0-0.6,0.097-0.802,0.287c-0.269,0.254-0.401,0.588-0.401,1.004c0,0.424,0.133,0.799,0.399,1.121
		c0.267,0.323,0.628,0.485,1.082,0.485c0.324,0,0.617-0.086,0.874-0.26c0.184-0.119,0.361-0.334,0.533-0.646L171.843,69.923z"/>
	<path fill="#020202" d="M175.076,70.759c-0.469,0.281-0.762,0.445-0.881,0.49c-0.178,0.063-0.369,0.096-0.57,0.096
		c-0.314,0-0.575-0.084-0.779-0.252c-0.203-0.168-0.305-0.389-0.305-0.661c0-0.175,0.048-0.322,0.146-0.451
		c0.138-0.174,0.373-0.34,0.711-0.494c0.336-0.154,0.896-0.344,1.678-0.566v-0.14c0-0.355-0.071-0.599-0.217-0.729
		c-0.145-0.133-0.354-0.197-0.629-0.197c-0.207,0-0.375,0.043-0.496,0.131c-0.127,0.089-0.19,0.189-0.19,0.302l0.011,0.228
		c0,0.118-0.039,0.209-0.117,0.274c-0.076,0.063-0.179,0.096-0.306,0.096c-0.123,0-0.223-0.032-0.301-0.1
		c-0.077-0.068-0.117-0.16-0.117-0.275c0-0.223,0.146-0.428,0.438-0.612c0.293-0.187,0.701-0.277,1.229-0.277
		c0.403,0,0.734,0.053,0.993,0.158c0.195,0.08,0.34,0.205,0.434,0.375c0.061,0.111,0.09,0.34,0.09,0.684v1.205
		c0,0.338,0.009,0.545,0.023,0.621c0.018,0.076,0.044,0.127,0.082,0.152c0.039,0.024,0.083,0.039,0.133,0.039
		c0.053,0,0.1-0.011,0.141-0.027c0.068-0.033,0.203-0.127,0.402-0.281v0.215c-0.371,0.387-0.727,0.582-1.065,0.582
		c-0.161,0-0.292-0.043-0.388-0.131C175.13,71.123,175.08,70.973,175.076,70.759z M175.076,70.507v-1.352
		c-0.5,0.155-0.822,0.266-0.971,0.329c-0.261,0.113-0.448,0.232-0.563,0.357c-0.111,0.123-0.169,0.258-0.169,0.406
		c0,0.186,0.073,0.34,0.215,0.461c0.144,0.125,0.308,0.186,0.491,0.186C174.334,70.896,174.666,70.768,175.076,70.507z"/>
	<path fill="#020202" d="M178.35,67.618v0.797c0.383-0.531,0.772-0.797,1.176-0.797c0.183,0,0.332,0.041,0.453,0.129
		c0.116,0.086,0.179,0.187,0.179,0.301c0,0.101-0.043,0.185-0.132,0.257c-0.084,0.067-0.188,0.104-0.307,0.104
		c-0.117,0-0.246-0.043-0.392-0.133c-0.144-0.09-0.251-0.135-0.319-0.135c-0.063,0-0.125,0.026-0.195,0.077
		c-0.147,0.105-0.304,0.279-0.463,0.523v1.7c0,0.195,0.032,0.345,0.096,0.445c0.043,0.07,0.119,0.129,0.229,0.176
		c0.109,0.045,0.267,0.068,0.472,0.068v0.139h-2.332v-0.139c0.23,0,0.403-0.027,0.517-0.086c0.085-0.041,0.144-0.107,0.177-0.197
		c0.016-0.043,0.023-0.168,0.023-0.375v-1.377c0-0.412-0.01-0.658-0.031-0.738c-0.021-0.078-0.063-0.135-0.121-0.172
		c-0.057-0.035-0.13-0.055-0.216-0.055c-0.103,0-0.22,0.02-0.349,0.059l-0.052-0.139l1.382-0.434L178.35,67.618L178.35,67.618z"/>
	<path fill="#020202" d="M181.174,69.059c-0.004,0.526,0.161,0.94,0.493,1.239c0.332,0.302,0.724,0.449,1.168,0.449
		c0.301,0,0.56-0.063,0.78-0.19s0.404-0.347,0.555-0.656l0.155,0.076c-0.071,0.354-0.272,0.678-0.608,0.969
		s-0.754,0.436-1.258,0.436c-0.549,0-1.018-0.166-1.405-0.498c-0.392-0.332-0.585-0.777-0.585-1.34c0-0.605,0.199-1.078,0.6-1.418
		c0.399-0.34,0.899-0.51,1.505-0.51c0.512,0,0.93,0.131,1.258,0.393c0.33,0.262,0.495,0.611,0.495,1.051H181.174L181.174,69.059z
		 M181.174,68.835h2.109c-0.018-0.229-0.053-0.39-0.104-0.481c-0.084-0.146-0.206-0.259-0.37-0.34
		c-0.164-0.084-0.336-0.125-0.516-0.125c-0.273,0-0.521,0.081-0.738,0.25C181.339,68.305,181.211,68.538,181.174,68.835z"/>
	<path fill="#020202" d="M189.287,66.305v2.075h1.482c0.386,0,0.641-0.043,0.771-0.135c0.172-0.119,0.269-0.328,0.289-0.627h0.185
		v1.825h-0.185c-0.046-0.254-0.095-0.418-0.14-0.489c-0.061-0.09-0.157-0.162-0.295-0.213c-0.136-0.052-0.345-0.078-0.627-0.078
		h-1.481v1.731c0,0.232,0.014,0.373,0.041,0.424c0.026,0.052,0.071,0.093,0.14,0.121c0.065,0.029,0.189,0.043,0.378,0.043h1.144
		c0.382,0,0.66-0.02,0.832-0.061c0.173-0.041,0.338-0.123,0.496-0.244c0.205-0.162,0.416-0.4,0.632-0.725h0.198l-0.58,1.316h-5.198
		v-0.144h0.237c0.158,0,0.311-0.03,0.455-0.09c0.104-0.041,0.176-0.104,0.215-0.187c0.037-0.082,0.057-0.252,0.057-0.508V66.93
		c0-0.334-0.042-0.541-0.13-0.617c-0.119-0.104-0.318-0.153-0.597-0.153h-0.237v-0.144h5.198l0.072,1.148h-0.193
		c-0.068-0.275-0.146-0.465-0.229-0.568c-0.085-0.104-0.211-0.182-0.376-0.236c-0.133-0.038-0.365-0.059-0.701-0.059h-1.852V66.305z
		"/>
	<path fill="#020202" d="M195.48,68.001v2.334c0,0.33,0.047,0.539,0.141,0.627c0.123,0.113,0.286,0.17,0.493,0.17h0.411v0.14h-2.721
		v-0.14h0.203c0.135,0,0.256-0.024,0.364-0.075c0.108-0.054,0.185-0.123,0.228-0.212c0.041-0.088,0.061-0.258,0.061-0.51v-2.334
		h-0.887v-0.278h0.887V67.49c0-0.354,0.072-0.652,0.219-0.898s0.368-0.443,0.67-0.596c0.299-0.15,0.639-0.227,1.012-0.227
		c0.351,0,0.67,0.088,0.961,0.264c0.191,0.115,0.289,0.248,0.289,0.391c0,0.078-0.043,0.152-0.129,0.221
		c-0.089,0.066-0.18,0.103-0.279,0.103c-0.075,0-0.156-0.021-0.24-0.063c-0.084-0.041-0.189-0.136-0.311-0.275
		c-0.125-0.141-0.236-0.234-0.341-0.283c-0.104-0.051-0.217-0.074-0.343-0.074c-0.15,0-0.282,0.031-0.388,0.096
		c-0.107,0.063-0.183,0.16-0.229,0.295c-0.048,0.134-0.07,0.476-0.07,1.027v0.256h1.177v0.279h-1.177V68.001z"/>
	<path fill="#020202" d="M198.689,68.001v2.334c0,0.33,0.045,0.539,0.14,0.627c0.123,0.113,0.286,0.17,0.493,0.17h0.412v0.14h-2.721
		v-0.14h0.202c0.134,0,0.255-0.024,0.364-0.075c0.109-0.054,0.184-0.123,0.227-0.212c0.043-0.088,0.063-0.258,0.063-0.51v-2.334
		h-0.887v-0.278h0.887V67.49c0-0.354,0.072-0.652,0.218-0.898s0.37-0.443,0.67-0.596c0.3-0.15,0.64-0.227,1.013-0.227
		c0.35,0,0.67,0.088,0.961,0.264c0.191,0.115,0.287,0.248,0.287,0.391c0,0.078-0.041,0.152-0.129,0.221
		c-0.088,0.066-0.178,0.103-0.277,0.103c-0.076,0-0.157-0.021-0.241-0.063c-0.084-0.041-0.188-0.136-0.312-0.275
		c-0.125-0.141-0.235-0.234-0.34-0.283c-0.104-0.051-0.217-0.074-0.343-0.074c-0.151,0-0.282,0.031-0.388,0.096
		c-0.107,0.063-0.182,0.16-0.229,0.295c-0.048,0.134-0.07,0.476-0.07,1.027v0.256h1.176v0.279h-1.176V68.001z"/>
	<path fill="#020202" d="M201.873,67.618v2.85c0,0.224,0.021,0.371,0.063,0.445c0.041,0.073,0.103,0.127,0.184,0.164
		c0.082,0.037,0.229,0.055,0.445,0.055v0.14h-2.213v-0.14c0.222,0,0.371-0.016,0.447-0.051c0.076-0.033,0.137-0.09,0.182-0.166
		c0.045-0.078,0.065-0.228,0.065-0.447v-1.366c0-0.386-0.014-0.636-0.044-0.748c-0.023-0.082-0.061-0.142-0.109-0.172
		c-0.05-0.033-0.117-0.05-0.205-0.05c-0.09,0-0.205,0.021-0.336,0.06l-0.069-0.14l1.373-0.434H201.873z M201.46,65.761
		c0.14,0,0.257,0.039,0.354,0.113c0.099,0.078,0.147,0.17,0.147,0.276c0,0.109-0.05,0.203-0.147,0.279
		c-0.099,0.078-0.217,0.117-0.354,0.117c-0.14,0-0.259-0.039-0.358-0.117c-0.1-0.076-0.148-0.17-0.148-0.279
		c0-0.106,0.05-0.198,0.146-0.276C201.195,65.8,201.316,65.761,201.46,65.761z"/>
	<path fill="#020202" d="M207.002,69.923c-0.123,0.47-0.363,0.828-0.721,1.08c-0.358,0.25-0.756,0.377-1.189,0.377
		c-0.518,0-0.968-0.17-1.354-0.508c-0.385-0.338-0.577-0.797-0.577-1.373c0-0.558,0.213-1.01,0.641-1.358
		c0.425-0.349,0.937-0.521,1.534-0.521c0.446,0,0.814,0.092,1.104,0.275c0.289,0.186,0.434,0.377,0.434,0.575
		c0,0.099-0.041,0.179-0.123,0.238c-0.081,0.062-0.193,0.092-0.34,0.092c-0.195,0-0.344-0.049-0.442-0.147
		c-0.056-0.053-0.094-0.156-0.11-0.31c-0.021-0.153-0.086-0.27-0.201-0.35c-0.117-0.078-0.278-0.117-0.483-0.117
		c-0.332,0-0.599,0.097-0.8,0.287c-0.271,0.254-0.404,0.588-0.404,1.004c0,0.424,0.135,0.799,0.4,1.121
		c0.27,0.323,0.627,0.485,1.084,0.485c0.322,0,0.615-0.086,0.874-0.26c0.183-0.119,0.358-0.334,0.53-0.646L207.002,69.923z"/>
	<path fill="#020202" d="M209.225,67.618v2.85c0,0.224,0.021,0.371,0.063,0.445c0.04,0.073,0.104,0.127,0.185,0.164
		s0.229,0.055,0.444,0.055v0.14h-2.213v-0.14c0.221,0,0.37-0.016,0.446-0.051c0.076-0.033,0.137-0.09,0.183-0.166
		c0.044-0.078,0.067-0.228,0.067-0.447v-1.366c0-0.386-0.017-0.636-0.045-0.748c-0.024-0.082-0.062-0.142-0.108-0.172
		c-0.052-0.033-0.119-0.05-0.206-0.05c-0.092,0-0.205,0.021-0.337,0.06l-0.071-0.14l1.373-0.434H209.225z M208.813,65.761
		c0.141,0,0.258,0.039,0.354,0.113c0.101,0.078,0.147,0.17,0.147,0.276c0,0.109-0.049,0.203-0.147,0.279
		c-0.099,0.078-0.215,0.117-0.354,0.117c-0.139,0-0.258-0.039-0.357-0.117c-0.1-0.076-0.15-0.17-0.15-0.279
		c0-0.106,0.051-0.198,0.148-0.276C208.55,65.8,208.67,65.761,208.813,65.761z"/>
	<path fill="#020202" d="M211.25,69.059c-0.004,0.526,0.16,0.94,0.492,1.239c0.332,0.302,0.721,0.449,1.168,0.449
		c0.301,0,0.56-0.063,0.777-0.19c0.224-0.127,0.407-0.347,0.558-0.656l0.155,0.076c-0.071,0.354-0.272,0.678-0.608,0.969
		c-0.335,0.291-0.753,0.436-1.258,0.436c-0.548,0-1.017-0.166-1.405-0.498c-0.393-0.332-0.585-0.777-0.585-1.34
		c0-0.605,0.199-1.078,0.601-1.418c0.398-0.34,0.898-0.51,1.504-0.51c0.512,0,0.93,0.131,1.258,0.393
		c0.33,0.262,0.494,0.611,0.494,1.051H211.25L211.25,69.059z M211.25,68.835h2.109c-0.019-0.229-0.053-0.39-0.105-0.481
		c-0.083-0.146-0.206-0.259-0.369-0.34c-0.164-0.084-0.337-0.125-0.516-0.125c-0.273,0-0.521,0.081-0.74,0.25
		C211.414,68.305,211.286,68.538,211.25,68.835z"/>
	<path fill="#020202" d="M216.335,68.368c0.533-0.5,1.043-0.75,1.526-0.75c0.246,0,0.462,0.047,0.643,0.146
		c0.178,0.098,0.32,0.256,0.428,0.479c0.072,0.154,0.109,0.393,0.109,0.713v1.514c0,0.227,0.021,0.379,0.068,0.459
		c0.037,0.064,0.097,0.113,0.177,0.15s0.231,0.055,0.45,0.055v0.139h-2.254v-0.139h0.095c0.213,0,0.36-0.025,0.444-0.076
		s0.145-0.125,0.178-0.223c0.013-0.039,0.019-0.16,0.019-0.365v-1.451c0-0.322-0.054-0.557-0.161-0.703
		c-0.106-0.146-0.287-0.221-0.543-0.221c-0.396,0-0.787,0.17-1.179,0.506v1.869c0,0.24,0.019,0.391,0.054,0.447
		c0.047,0.074,0.111,0.129,0.191,0.164c0.081,0.035,0.246,0.053,0.495,0.053v0.139h-2.253v-0.139h0.1
		c0.23,0,0.389-0.047,0.471-0.137c0.08-0.092,0.121-0.268,0.121-0.527v-1.316c0-0.426-0.013-0.686-0.037-0.778
		c-0.024-0.092-0.063-0.156-0.115-0.188c-0.051-0.033-0.12-0.052-0.205-0.052c-0.094,0-0.203,0.021-0.333,0.06l-0.075-0.14
		l1.373-0.434h0.215L216.335,68.368L216.335,68.368z"/>
	<path fill="#020202" d="M223.969,69.923c-0.123,0.47-0.363,0.828-0.721,1.08c-0.357,0.25-0.756,0.377-1.189,0.377
		c-0.518,0-0.968-0.17-1.354-0.508c-0.385-0.338-0.577-0.797-0.577-1.373c0-0.558,0.213-1.01,0.642-1.358
		c0.424-0.349,0.936-0.521,1.533-0.521c0.446,0,0.814,0.092,1.104,0.275c0.286,0.186,0.432,0.377,0.432,0.575
		c0,0.099-0.041,0.179-0.121,0.238c-0.081,0.062-0.192,0.092-0.342,0.092c-0.194,0-0.343-0.049-0.442-0.147
		c-0.056-0.053-0.094-0.156-0.11-0.31c-0.021-0.153-0.086-0.27-0.201-0.35c-0.117-0.078-0.278-0.117-0.483-0.117
		c-0.332,0-0.599,0.097-0.8,0.287c-0.271,0.254-0.403,0.588-0.403,1.004c0,0.424,0.133,0.799,0.401,1.121
		c0.267,0.323,0.625,0.485,1.082,0.485c0.323,0,0.615-0.086,0.874-0.26c0.184-0.119,0.357-0.334,0.531-0.646L223.969,69.923z"/>
	<path fill="#020202" d="M224.359,67.723h2.127v0.143h-0.105c-0.148,0-0.261,0.025-0.335,0.076c-0.075,0.051-0.11,0.113-0.11,0.188
		c0,0.102,0.054,0.24,0.162,0.42l1.11,1.791l1.021-1.963c0.056-0.105,0.084-0.209,0.084-0.313c0-0.047-0.014-0.082-0.037-0.105
		c-0.025-0.029-0.065-0.051-0.123-0.068c-0.057-0.018-0.155-0.024-0.299-0.024v-0.144h1.482v0.144
		c-0.122,0.012-0.217,0.03-0.283,0.063c-0.066,0.03-0.141,0.09-0.219,0.176c-0.031,0.035-0.087,0.133-0.171,0.297l-1.854,3.543
		c-0.18,0.344-0.414,0.602-0.703,0.777s-0.569,0.264-0.838,0.264c-0.195,0-0.356-0.045-0.48-0.131
		c-0.129-0.088-0.189-0.189-0.189-0.304c0-0.106,0.043-0.194,0.137-0.262c0.09-0.065,0.217-0.101,0.375-0.101
		c0.108,0,0.26,0.029,0.447,0.086c0.133,0.039,0.217,0.06,0.248,0.06c0.101,0,0.207-0.041,0.326-0.121s0.236-0.233,0.355-0.463
		l0.322-0.617l-1.636-2.678c-0.052-0.08-0.13-0.181-0.239-0.299c-0.082-0.091-0.15-0.15-0.203-0.183
		c-0.076-0.041-0.199-0.078-0.369-0.108v-0.144H224.359z"/>
</g>
</svg>
